<?xml version="1.0" encoding="UTF-8" standalone="no"?>
<svg fill="none" xmlns="http://www.w3.org/2000/svg" viewBox="0 0 48 48">
    <g>
        <path fill="#01173b" d="m 10.650114,27.183426 v -4.2 h 26.4 v 4.2 z" />
        <path fill="#4669a3" d="m 6.5380828,41.911426 q -1.856,-2.176 -3.184,-4.944 -1.312,-2.768 -2,-5.792 -0.67200004,-3.04 -0.60800004,-6.032 -0.064,-2.992 0.60800004,-6.032 0.688,-3.04 2,-5.792 1.328,-2.768 3.184,-4.9439996 l 3.232,2.3679996 q -1.952,2.352 -3.056,4.704 -1.104,2.336 -1.568,4.752 -0.448,2.4 -0.464,4.944 0.016,2.544 0.464,4.96 0.464,2.4 1.568,4.752 1.104,2.336 3.056,4.688 z m 34.6240942,0 -3.232,-2.368 q 1.952,-2.352 3.056,-4.688 1.104,-2.352 1.552,-4.752 0.464,-2.416 0.48,-4.96 -0.016,-2.544 -0.48,-4.944 -0.448,-2.416 -1.552,-4.752 -1.104,-2.352 -3.056,-4.704 l 3.232,-2.3679996 q 1.856,2.1759996 3.168,4.9439996 1.328,2.752 2,5.792 0.688,3.04 0.624,6.032 0.064,2.992 -0.624,6.032 -0.672,3.024 -2,5.792 -1.312,2.768 -3.168,4.944 z" />
    </g>
</svg>
